<?xml version="1.0" encoding="UTF-8"?>
<svg id="Layer_1" xmlns="http://www.w3.org/2000/svg" viewBox="0 0 1728 1728">
  <defs>
    <style>
      .cls-1 {
        fill: #f37321;
      }

      .cls-2 {
        fill: #d2e4ee;
      }
    </style>
  </defs>
  <rect class="cls-2" width="1728" height="1728"/>
  <g>
    <path class="cls-1" d="M1558.17,742.88c8.17,43.81-82.66,133.8-60.92,194.27,21.77,60.52,37.66,157.47,11.2,203.22-1.56,2.73-3.16,5.43-4.81,8.12-.01.03-.04.06-.06.08-70.01,99.21-18.8-52.89-84.65-193.04-42.81-91.09-122.43-135.73-71.19-222.75,70.28-119.33-8.63-222.74-13.21-248.63-4.57-25.86,21.7-28.79,55.9-.14.06.04.11.1.17.14,13.78,12.4,26.93,25.3,39.39,38.65l.33.38c31.97,35.2,14.09,102.49,10.12,132.51-9.77,73.73,2.9,147.58,17.78,165.47,14.9,17.89,26.35-32.79,26.57-67.15.24-34.36,10.09-116.84,32.19-110.76,17.14,31.78,30.98,65.07,41.16,99.56,0,.03.01.04.01.07Z"/>
    <path class="cls-1" d="M1171.48,350.65c.08.04.15.07.24.1l.03.03c74.41,33.92,156.51,136.37,164.38,209.95,7.9,73.68,6.63,117.73-51.95,196.7-55.19,74.39,98.38,149.97,148.78,357.15,7.5,30.79,14.24,58.37,13.34,85.24-.03.82-.07,1.64-.11,2.47-.03.64-.07,1.28-.11,1.91-.04.75-.1,1.49-.17,2.24-.03.45-.07.88-.11,1.32-.06.64-.13,1.27-.2,1.91-.08.77-.17,1.53-.28,2.3-.11.98-.25,1.95-.4,2.93-.1.71-.21,1.42-.33,2.13-.14.82-.28,1.64-.45,2.45-.15.85-.33,1.7-.52,2.55-.11.53-.22,1.07-.35,1.6-.1.47-.21.95-.33,1.42-.14.6-.29,1.18-.45,1.78-.21.81-.43,1.63-.65,2.45-.25.91-.53,1.83-.81,2.75-.45,1.42-1.2,2.75-2.2,3.86-19.26,21.54-40.24,41.94-62.8,61.05-1,.86-2.01,1.71-3.02,2.55-11.86,6.86-35.66-8.92-25.46-80.12,14.14-98.64,16.21-129.59-36.58-253.16-11.65-27.27-58.02-88.25-43.59-26.41,20.71,88.69,42.53,395.87-21.44,444.14t-.03.01c-19.76,10.3-40.19,19.79-61.2,28.43-42.1,15.91-26.53-130.37-19.93-189.42,18.18-162.43,71.97-165.57,9.8-310.75-84.76-197.98-58.52-344.23-94.15-443.86-19.3-53.94-23.55-147.33,34.53-137.27.01,0,.03,0,.04.01,19.22,5.82,38.03,12.36,56.42,19.54.03.01.04.01.07.03ZM1254.94,692.57c43.42-61.84,15.38-121.99-53.95-177.34-47.33-37.8-69.74,79.97-30.27,177.34,21.54,53.13,67.16,24.3,84.22,0Z"/>
    <path class="cls-1" d="M1446.18,1202.27c.04-.82.08-1.64.11-2.47-.03.82-.06,1.64-.11,2.47Z"/>
    <path class="cls-1" d="M1445.6,1209.66c.07-.64.14-1.27.2-1.91-.06.64-.13,1.27-.2,1.91Z"/>
    <path class="cls-1" d="M1445.32,1211.96c.11-.77.2-1.53.28-2.3-.08.77-.17,1.53-.28,2.3Z"/>
    <path class="cls-1" d="M1444.58,1217.02c.13-.71.24-1.42.33-2.13-.1.71-.21,1.42-.33,2.13Z"/>
    <path class="cls-1" d="M1444.14,1219.47c.17-.81.31-1.63.45-2.45-.14.82-.28,1.63-.45,2.45Z"/>
    <path class="cls-1" d="M1443.27,1223.62c.13-.53.24-1.07.35-1.6-.11.54-.22,1.07-.35,1.6Z"/>
    <path class="cls-1" d="M1441.84,1229.28c.22-.82.45-1.64.65-2.45-.2.81-.42,1.63-.65,2.45Z"/>
    <path class="cls-1" d="M1156.55,965.7c27.72,118.85-14.92,253.77-121.58,278.89-59.51,14.03-146.96-11.09-179.04-60.27-45.45-69.71-1.57-191.64,16.61-300.16,31.37-187.22-19.09-372.18,0-456.25,24.33-107.18,56.66-163.17,117.67-97.18,27.94,30.22,81.42,208.76,66.1,323.61-15.31,114.86,78.42,217.86,100.23,311.35ZM977.42,1082.98c115.46,11.36,129.23-39.32,78.56-145.52-47.72-100.03-72.35-171.35-70.03-309.87,1.83-109.87-80.79,60.36-52.57,281.44,12.76,91.88-17.35,167.91,44.05,173.94Z"/>
    <path class="cls-1" d="M1128.4,1324.1c13.66,59.15-7.66,111.68-98.4,134.09-.01,0-.04.01-.06.01-50.61,9.61-103.29,14.69-157.4,14.69-66.9,0-131.61-7.75-192.93-22.24-.13-.03-.25-.07-.38-.1-79.4-20.76-94.91-122.79-44.41-183.82,30.2-36.48,62.48-58.66,87.52-133.77,25.03-75.09-75.09-248.04-37.44-380.03,37.65-131.99-14.9-263.97-39.94-291.27-25.03-27.31-20.13-128.98,62.84-150.1,16.47-3.3,33.18-6.1,50.08-8.4.07,0,.15-.01.22-.01,84.89-7.65,87.88,21.21,65.14,107.61-22.75,86.48,39.91,305.1,10.33,443.92-25.68,120.5-62.69,172.55-16.02,336.46,14.81,52.02,111.64,100.76,165.71,102.28,52.49,1.45,131.48-28.48,145.14,30.68Z"/>
    <path class="cls-1" d="M683.63,1064.52c13.13,94.52-78.77,199.54-136.53,202.16-57.76,2.63-94.52-97.14-109.23-139.15s-48.3-191.67-56.18-272.85c-7.87-81.19,73.32-190.02,112.91-244.39,47.17-64.78,131.27-123.39,160.15-57.76,28.89,65.64-28.87,128.65-36.76,212.66-7.87,84.02,52.52,204.79,65.64,299.32ZM594.37,1085.52c2.62-65.64-47.26-124.11-44.65-202.52,2.63-78.41,28.48-159.92,23.23-194.06-5.25-34.12-63.12,7.76-82.7,45.68-30.64,59.33-16.43,223.44,14.84,290.51,32.34,69.39,86.64,126.04,89.28,60.39Z"/>
    <path class="cls-1" d="M461.79,405.26c19.63-10.83,69.34-22.35,69.34,37.15,0,125.03-194.51,236.13-194.51,407.33,0,185.91,63.69,239.86,91.53,421.05,8.72,56.77-30.18,48.52-66.88,19.44-7.25-6.34-14.32-12.82-21.24-19.44h-.01c-40.59-42.71-58.31-272.32-78.91-322.66-20.59-50.33-30.52,46.96-19.31,108.6,12.37,68.01-.56,86.29-10.88,73.56-41.4-74.88-64.49-158.25-64.49-246.12,0-120.15,43.17-231.91,117.3-325.04l.06-.06c58.93-64-51.61,141.99-21.51,230.24,9.64,28.23,35.2-120.48,93.46-231.56,28.24-53.88,64.91-125.48,102.97-150.63,1-.61,2.02-1.23,3.04-1.83.03-.01.04-.03.06-.03Z"/>
  </g>
</svg>